<svg id="Layer_1" data-name="Layer 1" xmlns="http://www.w3.org/2000/svg" viewBox="0 0 365 326"><defs><style>.cls-1{fill:#fff;}</style></defs><title>Artboard 1avatar1</title><path class="cls-1" d="M167.89,30.23H55.26c-13,0-21.31,8.17-21.32,21.21q0,112.77,0,225.53a25.08,25.08,0,0,0,.67,6.18C37,292.37,44.71,298,54.89,298h225c13.62,0,21.42-7.61,21.71-21.29,0-1.82.59-2.34,2.38-2.57a41.44,41.44,0,0,0,.91-82c-3-.45-3.3-1.58-3.29-4.08.06-45.49-.14-91,.16-136.46a20.86,20.86,0,0,0-21.5-21.48C242.79,30.41,205.34,30.23,167.89,30.23Z"/><path d="M167.89,30.23c37.45,0,74.9.18,112.34-.1a20.86,20.86,0,0,1,21.5,21.48c-.3,45.48-.1,91-.16,136.46,0,2.5.28,3.63,3.29,4.08a41.44,41.44,0,0,1-.91,82c-1.79.23-2.35.75-2.38,2.57-.29,13.68-8.09,21.29-21.71,21.29h-225c-10.18,0-17.92-5.63-20.26-14.84A25.08,25.08,0,0,1,34,277q0-112.76,0-225.53c0-13,8.27-21.21,21.32-21.21Zm-3.6,68.43H106V291.13h58.32Zm72.27,0V291.09a7.93,7.93,0,0,0,1,.17c14.95,0,29.89.11,44.83,0,8.45-.08,14.25-8.22,12.18-16.68-22.61-2.63-36.8-20.36-37.74-39.5a40.13,40.13,0,0,1,7.09-25.2c7.42-10.85,17.9-16.72,30.84-18.25v-93Zm-6.95,192.55c0-1,.12-1.77.12-2.52q0-93.61.05-187.21c0-2.39-.71-3-3-3-17.59.09-35.17,0-52.76.06-.91,0-1.82.1-2.69.15V291.16ZM99,291.28V98.69H40.69c0,1-.12,1.7-.12,2.44q0,88.2,0,176.41c0,8.2,5.52,13.71,13.69,13.73q21.14,0,42.26,0ZM263.49,233a34.87,34.87,0,1,0,34.82-34.82A34.89,34.89,0,0,0,263.49,233Zm-99.2-195.9H106V91.74h58.32Zm65.28,0H171.24V91.73h58.33Zm6.94,54.63h58.21a8.54,8.54,0,0,0,.27-1.42c0-13.51.15-27-.06-40.53-.11-7.64-5.71-12.8-13.35-12.82q-21.4-.06-42.8,0c-.72,0-1.45.11-2.27.17ZM99,37h-3q-20.57,0-41.13,0c-9.11,0-14.36,5.3-14.37,14.49q0,18.7,0,37.43c0,.92.09,1.83.14,2.84H99Z"/><path class="cls-1" d="M164.29,98.66V291.13H106V98.66ZM114.7,135.5c0,6.32,0,12.65,0,19,0,2.94,1,4,3.86,4,4.34.06,8.69.14,13-.06a5.91,5.91,0,0,0,3.64-1.64q9.56-10.08,18.81-20.41a6.79,6.79,0,0,0,1.55-4c.19-5,.09-10,.07-15,0-3.55-1-4.62-4.5-4.63q-16,0-32,0c-3.56,0-4.45,1-4.46,4.63C114.69,123.41,114.7,129.45,114.7,135.5Zm0,60c0,6.24,0,12.47,0,18.7,0,3.15,1.11,4.23,4.27,4.27,4.06,0,8.13.17,12.18-.07a6.83,6.83,0,0,0,4.15-1.83q9.49-9.93,18.64-20.2a7.26,7.26,0,0,0,1.66-4.24c.2-5,.09-10,.07-15,0-3.46-1.07-4.48-4.62-4.48q-15.87,0-31.74,0c-3.74,0-4.6.89-4.61,4.73C114.69,183.4,114.7,189.45,114.7,195.49Z"/><path class="cls-1" d="M236.56,98.61h58.23v93c-12.94,1.53-23.42,7.4-30.84,18.25a40.13,40.13,0,0,0-7.09,25.2c.94,19.14,15.13,36.87,37.74,39.5,2.07,8.46-3.73,16.6-12.18,16.68-14.94.14-29.88,0-44.83,0a7.93,7.93,0,0,1-1-.17Zm8.75,36.83c0,6.33,0,12.65,0,19,0,3,1.06,4.06,4.09,4.09,4.25,0,8.51.13,12.75-.07a5.89,5.89,0,0,0,3.66-1.6q9.65-10.17,19-20.61a5.92,5.92,0,0,0,1.37-3.51c.14-5.28.09-10.57.05-15.86,0-3-1.06-4.1-4.12-4.11q-16.29-.06-32.58,0c-3.21,0-4.22,1.08-4.24,4.28C245.28,123.17,245.3,129.3,245.31,135.44Z"/><path class="cls-1" d="M229.61,291.16H171.29V98.64c.87,0,1.78-.15,2.69-.15,17.59,0,35.17,0,52.76-.06,2.33,0,3,.61,3,3q-.09,93.6-.05,187.21C229.73,289.39,229.66,290.14,229.61,291.16Zm-49.64-36c0,6.33,0,12.66,0,19,0,3.07,1,4.06,4.09,4.09,4.16,0,8.32.16,12.46-.08a6.68,6.68,0,0,0,4.13-1.81q9.48-9.94,18.63-20.19a6.88,6.88,0,0,0,1.58-4c.18-5.1.09-10.2.07-15.3,0-3.32-1.06-4.38-4.45-4.39q-16.14,0-32.29,0c-3.26,0-4.2,1-4.22,4.27C180,242.91,180,249.05,180,255.18Zm0-119.52c0,6.23,0,12.46,0,18.69,0,3.09,1,4.12,4,4.15,4.25.05,8.51.16,12.75-.07a6.28,6.28,0,0,0,3.87-1.76q9.47-9.94,18.61-20.2a7.27,7.27,0,0,0,1.64-4.25c.2-4.9.08-9.82.07-14.73,0-3.73-1-4.74-4.66-4.75q-15.87,0-31.73,0c-3.65,0-4.56.93-4.57,4.5C180,123.38,180,129.52,180,135.66Zm0,59.71c0,6.23,0,12.46,0,18.7,0,3.31,1.07,4.36,4.42,4.4,4,0,7.95.16,11.9-.08a6.74,6.74,0,0,0,4.19-1.74q9.58-10,18.83-20.4a6.85,6.85,0,0,0,1.55-4c.18-5,.09-10,.07-15,0-3.56-1-4.59-4.49-4.6q-16,0-32,0c-3.51,0-4.44,1-4.46,4.6C180,183.28,180,189.32,180,195.37Z"/><path class="cls-1" d="M99,291.28H96.52q-21.13,0-42.26,0c-8.17,0-13.68-5.53-13.69-13.73q0-88.2,0-176.41c0-.74.07-1.49.12-2.44H99ZM49.87,135.63c0,5.94,0,11.89,0,17.84,0,4.32.76,5,5.17,5.05,3.78,0,7.57.16,11.33-.08a6.81,6.81,0,0,0,4.15-1.75q9.5-9.93,18.64-20.18a7.27,7.27,0,0,0,1.68-4.26c.21-5,.11-10,.07-15,0-3.35-1.08-4.49-4.38-4.5q-16.14-.06-32.29,0c-3.39,0-4.34,1-4.36,4.46C49.85,123.35,49.88,129.49,49.87,135.63Zm0,119.56c0,6.32,0,12.65,0,19,0,3.08,1.05,4.05,4.12,4.08,4.16,0,8.32.16,12.46-.08a6.71,6.71,0,0,0,4.13-1.82q9.39-9.83,18.43-20a7.77,7.77,0,0,0,1.81-4.48c.23-4.9.1-9.82.08-14.73,0-3.54-1.05-4.66-4.49-4.67q-16,0-32,0c-3.6,0-4.52.95-4.54,4.57C49.85,243.1,49.88,249.15,49.88,255.19Zm0-59.84c0,6.24,0,12.47,0,18.7,0,3.32,1.12,4.38,4.45,4.42,4,0,7.95.18,11.9-.08a7.3,7.3,0,0,0,4.39-1.94q9.5-9.93,18.63-20.2a6.81,6.81,0,0,0,1.6-4c.18-5.1.1-10.2.06-15.3,0-3.26-1.16-4.33-4.51-4.33q-16,0-32,0c-3.5,0-4.49,1-4.51,4.59C49.85,183.26,49.88,189.31,49.88,195.35Z"/><path class="cls-1" d="M263.49,233a34.87,34.87,0,1,1,34.72,34.92A34.88,34.88,0,0,1,263.49,233Zm30.34,7.08c-2.41-1.84-4.68-3.54-6.9-5.28-1.78-1.4-3.56-1.84-5.24,0-1.42,1.57-.91,3.54,1.29,5.28,2.75,2.17,5.53,4.29,8.31,6.41,3,2.28,4.3,2.14,6.59-.82q7.89-10.2,15.74-20.43c2.52-3.28,2.73-5.12.77-6.57s-3.52-.73-5.95,2.43Z"/><path class="cls-1" d="M164.29,37.11V91.74H106V37.11Zm-29.1,26.57c-4.53,0-9.06,0-13.59,0-2.33,0-3.91.88-3.91,3.39s1.59,3.3,3.74,3.3q13.74,0,27.46,0c2.2,0,3.76-1,3.79-3.29s-1.52-3.44-3.91-3.41C144.25,63.72,139.72,63.68,135.19,63.68Z"/><path class="cls-1" d="M229.57,37.11V91.73H171.24V37.11ZM202,63.68c-4.53,0-9.06,0-13.59,0-2.32,0-3.92.74-4.16,3.2-.22,2.14,1.38,3.49,4.15,3.51,9,0,17.93,0,26.9,0,2.26,0,4-.82,4-3.37s-1.63-3.36-4-3.34C210.82,63.71,206.39,63.68,202,63.68Z"/><path class="cls-1" d="M236.51,91.74V37.13c.82-.06,1.55-.17,2.27-.17q21.41,0,42.8,0c7.64,0,13.24,5.18,13.35,12.82.21,13.51.07,27,.06,40.53a8.54,8.54,0,0,1-.27,1.42Zm28.32-28.06c-4.43,0-8.87,0-13.31,0-2.87,0-4.33,1.13-4.35,3.28s1.47,3.39,4.29,3.4q13.32,0,26.62,0c2.84,0,4.29-1.25,4.15-3.47-.16-2.54-1.8-3.26-4.09-3.23C273.71,63.71,269.27,63.68,264.83,63.68Z"/><path class="cls-1" d="M99,37V91.72H40.71c-.05-1-.14-1.92-.14-2.84q0-18.72,0-37.43C40.57,42.26,45.82,37,54.93,37q20.57,0,41.13,0ZM72,63.68c-4.53,0-9.06,0-13.59,0-2.29,0-3.93.72-4.16,3.19-.21,2.15,1.37,3.5,4.14,3.51,9,0,17.93,0,26.89,0,2.27,0,4-.85,4-3.36s-1.63-3.37-4-3.35C80.82,63.71,76.39,63.68,72,63.68Z"/><path d="M114.7,135.5c0-6.05,0-12.09,0-18.13,0-3.66.9-4.61,4.46-4.63q16,0,32,0c3.49,0,4.49,1.08,4.5,4.63,0,5,.12,10-.07,15a6.79,6.79,0,0,1-1.55,4q-9.26,10.34-18.81,20.41a5.91,5.91,0,0,1-3.64,1.64c-4.34.2-8.69.12-13,.06-2.83,0-3.84-1.08-3.86-4C114.67,148.15,114.7,141.82,114.7,135.5Zm6.74-16v32.17H129v-16c0-4.88.68-5.55,5.53-5.55h14.3V119.5Zm23.1,17.5h-8.71v9.42Z"/><path d="M114.7,195.49c0-6,0-12.09,0-18.13,0-3.84.87-4.73,4.61-4.73q15.87,0,31.74,0c3.55,0,4.6,1,4.62,4.48,0,5,.13,10-.07,15a7.26,7.26,0,0,1-1.66,4.24q-9.15,10.26-18.64,20.2a6.83,6.83,0,0,1-4.15,1.83c-4,.24-8.12.12-12.18.07-3.16,0-4.25-1.12-4.27-4.27C114.68,208,114.7,201.73,114.7,195.49Zm6.76-16.06v32.13H129c0-5.69,0-11.16,0-16.62,0-4.14.77-4.89,5-4.91h14.79v-10.6Zm14.31,27,8.8-9.61h-8.8Z"/><path d="M245.3,135.44c0-6.14,0-12.27,0-18.41,0-3.2,1-4.27,4.24-4.28q16.29-.06,32.58,0c3.06,0,4.09,1.1,4.12,4.11,0,5.29.09,10.58-.05,15.86a5.92,5.92,0,0,1-1.37,3.51q-9.37,10.43-19,20.61a5.89,5.89,0,0,1-3.66,1.6c-4.24.2-8.5.11-12.75.07-3,0-4.08-1.07-4.09-4.09C245.28,148.09,245.31,141.77,245.3,135.44Zm6.93-15.92v32.24h6.91c.16-.3.33-.46.33-.62q0-8.08.07-16.16c0-3.88,1-4.87,4.82-4.88h15V119.52Zm14.28,17.39v9.48l8.71-9.48Z"/><path d="M180,255.18c0-6.13,0-12.27,0-18.41,0-3.26,1-4.26,4.22-4.27q16.14-.06,32.29,0c3.39,0,4.43,1.07,4.45,4.39,0,5.1.11,10.2-.07,15.3a6.88,6.88,0,0,1-1.58,4q-9.16,10.23-18.63,20.19a6.68,6.68,0,0,1-4.13,1.81c-4.14.24-8.3.12-12.46.08-3.06,0-4.07-1-4.09-4.09C179.94,267.84,180,261.51,180,255.18Zm14.26,16.45c0-5.9,0-11.44,0-17,0-3.88.94-4.8,4.84-4.81,5,0,9.95,0,14.91,0V239.22H187c-.16.28-.34.44-.34.6,0,10.1-.11,20.19,0,30.28a2.13,2.13,0,0,0,1.48,1.46C190,271.74,192,271.63,194.23,271.63Zm6.77-5.35c3.16-3.42,5.85-6.33,8.8-9.54H201Z"/><path d="M180,135.66c0-6.14,0-12.28,0-18.42,0-3.57.92-4.49,4.57-4.5q15.87,0,31.73,0c3.7,0,4.65,1,4.66,4.75,0,4.91.13,9.83-.07,14.73a7.27,7.27,0,0,1-1.64,4.25q-9.14,10.26-18.61,20.2a6.28,6.28,0,0,1-3.87,1.76c-4.24.23-8.5.12-12.75.07-3,0-4-1.06-4-4.15C179.94,148.12,180,141.89,180,135.66Zm34-5.56V119.48H187c-.17.28-.34.44-.34.6,0,10.09-.11,20.18,0,30.28,0,.51.92,1.4,1.48,1.45,1.93.18,3.89.07,6.13.07,0-6,0-11.62,0-17.26,0-3.5,1-4.5,4.57-4.52C203.8,130.08,208.79,130.1,214,130.1ZM201.15,137v9.41l8.66-9.41Z"/><path d="M180,195.37c0-6.05,0-12.09,0-18.14,0-3.62.95-4.6,4.46-4.6q16,0,32,0c3.48,0,4.48,1,4.49,4.6,0,5,.11,10-.07,15a6.85,6.85,0,0,1-1.55,4q-9.25,10.33-18.83,20.4a6.74,6.74,0,0,1-4.19,1.74c-4,.24-7.93.12-11.9.08-3.35,0-4.41-1.09-4.42-4.4C180,207.83,180,201.6,180,195.37Zm6.78-15.93v32.2h7.48V195.17c0-4.41.71-5.13,5.06-5.14H214V179.44Zm23.13,17.35h-8.73v9.49Z"/><path d="M49.88,135.63c0-6.14,0-12.28,0-18.42,0-3.46,1-4.45,4.36-4.46q16.16-.06,32.29,0c3.3,0,4.36,1.15,4.38,4.5,0,5,.14,10-.07,15a7.27,7.27,0,0,1-1.68,4.26Q80,146.74,70.53,156.69a6.81,6.81,0,0,1-4.15,1.75c-3.76.24-7.55.08-11.33.08-4.41,0-5.16-.73-5.17-5.05C49.86,147.52,49.87,141.57,49.88,135.63Zm34.25-16.1H56.64v32.12H64.2v-3c0-4.72,0-9.44,0-14.17,0-3.33,1.05-4.31,4.45-4.35,2,0,4,0,6,0h9.52ZM70.91,146.62,79.75,137H70.91Z"/><path d="M49.88,255.19c0-6,0-12.09,0-18.13,0-3.62.94-4.56,4.54-4.57q16,0,32,0c3.44,0,4.47,1.13,4.49,4.67,0,4.91.15,9.83-.08,14.73A7.77,7.77,0,0,1,89,256.37q-9,10.15-18.43,20a6.71,6.71,0,0,1-4.13,1.82c-4.14.24-8.3.12-12.46.08-3.07,0-4.09-1-4.12-4.08C49.84,267.84,49.88,261.51,49.88,255.19Zm13.89,16.27c.18-.35.34-.52.34-.68,0-5.39.06-10.77.09-16.15,0-3.9.93-4.79,4.87-4.79,5,0,10,0,14.9,0V239.32H56.69v32.14Zm7.29-14.74v9.47l8.7-9.47Z"/><path d="M49.88,195.35c0-6,0-12.09,0-18.13,0-3.59,1-4.59,4.51-4.59q16,0,32,0c3.35,0,4.48,1.07,4.51,4.33,0,5.1.12,10.2-.06,15.3a6.81,6.81,0,0,1-1.6,4q-9.17,10.25-18.63,20.2a7.3,7.3,0,0,1-4.39,1.94c-3.95.26-7.93.12-11.9.08-3.33,0-4.43-1.1-4.45-4.42C49.84,207.82,49.88,201.59,49.88,195.35Zm6.83-15.89v32.16H64.2c0-5.63,0-11.08,0-16.54,0-4.38.69-5,5.14-5.05H84.06V179.46Zm14.25,27,8.91-9.66H71Z"/><path d="M293.83,240.09l14.61-19c2.43-3.16,4.06-3.82,5.95-2.43s1.75,3.29-.77,6.57q-7.86,10.23-15.74,20.43c-2.29,3-3.59,3.1-6.59.82-2.78-2.12-5.56-4.24-8.31-6.41-2.2-1.74-2.71-3.71-1.29-5.28,1.68-1.87,3.46-1.43,5.24,0C289.15,236.55,291.42,238.25,293.83,240.09Z"/><path d="M135.19,63.68c4.53,0,9.06,0,13.58,0,2.39,0,3.93,1,3.91,3.41s-1.59,3.29-3.79,3.29q-13.72,0-27.46,0c-2.15,0-3.73-.91-3.74-3.3s1.58-3.4,3.91-3.39C126.13,63.7,130.66,63.68,135.19,63.68Z"/><path d="M202,63.68c4.44,0,8.87,0,13.31,0,2.33,0,4,.83,4,3.34s-1.71,3.36-4,3.37c-9,0-17.94,0-26.9,0-2.77,0-4.37-1.37-4.15-3.51.24-2.46,1.84-3.23,4.16-3.2C192.89,63.73,197.42,63.68,202,63.68Z"/><path d="M264.83,63.68c4.44,0,8.88,0,13.31,0,2.29,0,3.93.69,4.09,3.23.14,2.22-1.31,3.45-4.15,3.47q-13.31,0-26.62,0c-2.82,0-4.31-1.25-4.29-3.4s1.48-3.27,4.35-3.28C256,63.67,260.4,63.68,264.83,63.68Z"/><path d="M72,63.68c4.44,0,8.87,0,13.3,0,2.34,0,4,.86,4,3.35s-1.72,3.35-4,3.36c-9,0-17.93,0-26.89,0-2.77,0-4.35-1.36-4.14-3.51.23-2.47,1.87-3.22,4.16-3.19C62.89,63.72,67.42,63.68,72,63.68Z"/><path class="cls-1" d="M121.44,119.5H148.8v10.6H134.5c-4.85,0-5.53.67-5.53,5.55v16h-7.53Z"/><path class="cls-1" d="M144.54,137l-8.71,9.42V137Z"/><path class="cls-1" d="M121.46,179.43h27.3V190H134c-4.23,0-5,.77-5,4.91,0,5.46,0,10.93,0,16.62h-7.51Z"/><path class="cls-1" d="M135.77,206.42v-9.61h8.8Z"/><path class="cls-1" d="M252.23,119.52h27.14V130.1h-15c-3.84,0-4.8,1-4.82,4.88q0,8.09-.07,16.16c0,.16-.17.32-.33.62h-6.91Z"/><path class="cls-1" d="M266.51,136.91h8.71l-8.71,9.48Z"/><path class="cls-1" d="M194.23,271.63c-2.24,0-4.2.11-6.13-.07a2.13,2.13,0,0,1-1.48-1.46c-.06-10.09,0-20.18,0-30.28,0-.16.18-.32.34-.6h27v10.61c-5,0-9.94,0-14.91,0-3.9,0-4.84.93-4.84,4.81C194.22,260.19,194.23,265.73,194.23,271.63Z"/><path class="cls-1" d="M201,266.28v-9.54h8.8C206.85,260,204.16,262.86,201,266.28Z"/><path class="cls-1" d="M214,130.1c-5.2,0-10.19,0-15.18,0-3.54,0-4.56,1-4.57,4.52,0,5.64,0,11.27,0,17.26-2.24,0-4.2.11-6.13-.07-.56-.05-1.48-.94-1.48-1.45-.06-10.1,0-20.19,0-30.28,0-.16.17-.32.34-.6h27Z"/><path class="cls-1" d="M201.15,137h8.66l-8.66,9.41Z"/><path class="cls-1" d="M186.75,179.44H214V190H199.29c-4.35,0-5,.73-5.06,5.14v16.47h-7.48Z"/><path class="cls-1" d="M209.88,196.79l-8.73,9.49v-9.49Z"/><path class="cls-1" d="M84.13,119.53V130.1H74.61c-2,0-4,0-6,0-3.4,0-4.43,1-4.45,4.35,0,4.73,0,9.45,0,14.17v3H56.64V119.53Z"/><path class="cls-1" d="M70.91,146.62V137h8.84Z"/><path class="cls-1" d="M63.77,271.46H56.69V239.32H84v10.51c-5,0-9.92,0-14.9,0-3.94,0-4.85.89-4.87,4.79,0,5.38,0,10.76-.09,16.15C64.11,270.94,64,271.11,63.77,271.46Z"/><path class="cls-1" d="M71.06,256.72h8.7l-8.7,9.47Z"/><path class="cls-1" d="M56.71,179.46H84.06V190H69.34c-4.45,0-5.13.67-5.14,5.05,0,5.46,0,10.91,0,16.54H56.71Z"/><path class="cls-1" d="M71,206.42v-9.66h8.91Z"/></svg>