<svg id="Layer_1" data-name="Layer 1" xmlns="http://www.w3.org/2000/svg" viewBox="0 0 347 360"><defs><style>.cls-1{fill:#fff;}</style></defs><title>Artboard 1avatar</title><path class="cls-1" d="M73.91,54.88c-6.68,0-13-.06-19.35,0A15.17,15.17,0,0,0,39.69,66.37a25.92,25.92,0,0,0-.59,6.29q0,73.2,0,146.41,0,41,0,82c0,13.23,9.43,22.62,22.61,22.62q111.77,0,223.52,0a26.13,26.13,0,0,0,7.9-1.23c9.22-3,14.75-11.17,14.75-21.52q0-110.41,0-220.83c0-3.17,0-6.35,0-9.52-.1-9.06-6.7-15.6-15.81-15.66-5.45,0-10.9,0-16.35,0-.78,0-1.56-.08-2.54-.13,0-3.51.06-6.83,0-10.15a12.55,12.55,0,0,0-10.05-12.18,48.7,48.7,0,0,0-9-.45c-8.25,0-13.7,5.51-13.73,13.8,0,3,0,6,0,9H190c0-3.22.07-6.3,0-9.38-.19-8-5.69-13.35-13.69-13.4-1.71,0-3.41,0-5.12,0-8.54,0-14,5.5-14.06,14.05,0,2.89,0,5.79,0,8.73H106.71c0-3.22,0-6.3,0-9.38-.09-7.76-5.67-13.29-13.46-13.4-1.87,0-3.74,0-5.61,0C79.46,32,74,37.39,73.92,45.52,73.88,48.52,73.91,51.51,73.91,54.88Z"/><path d="M73.91,54.88c0-3.37,0-6.36,0-9.36C74,37.39,79.46,32,87.63,31.94c1.87,0,3.74,0,5.61,0,7.79.11,13.37,5.64,13.46,13.4,0,3.08,0,6.16,0,9.38h50.37c0-2.94,0-5.84,0-8.73,0-8.55,5.52-14,14.06-14,1.71,0,3.41,0,5.12,0,8,0,13.5,5.41,13.69,13.4.08,3.08,0,6.16,0,9.38h50.45c0-3,0-6,0-9,0-8.29,5.48-13.81,13.73-13.8a48.7,48.7,0,0,1,9,.45,12.55,12.55,0,0,1,10.05,12.18c.07,3.32,0,6.64,0,10.15,1,0,1.76.13,2.54.13,5.45,0,10.9,0,16.35,0,9.11.06,15.71,6.6,15.81,15.66,0,3.17,0,6.35,0,9.52q0,110.41,0,220.83c0,10.35-5.53,18.54-14.75,21.52a26.13,26.13,0,0,1-7.9,1.23q-111.75.09-223.52,0c-13.18,0-22.58-9.39-22.61-22.62q-.08-41,0-82,0-73.21,0-146.41a25.92,25.92,0,0,1,.59-6.29A15.17,15.17,0,0,1,54.56,54.9C60.89,54.82,67.23,54.88,73.91,54.88ZM242,265.59h40c4.2,0,5.39,1.16,5.4,5.32q0,12.68,0,25.36c0,4.25-1.25,5.47-5.56,5.47H242v14h2.47q20.25,0,40.49,0c9.35,0,15-5.73,15-15.1q0-72.45,0-144.89v-2.71H242ZM47.21,101.46H299.93c0-.8.09-1.45.09-2.09q0-14.15,0-28.3c0-5.09-2.91-8-8-8-5.53,0-11.06,0-16.59,0-.69,0-1.38.13-2.21.21,0,3.47.06,6.71,0,10A12.58,12.58,0,0,1,262.3,85.63a44.83,44.83,0,0,1-10,.16c-7.15-.67-11.85-6.12-11.89-13.35,0-3.07,0-6.13,0-9.27h-50.4c0,3.22,0,6.29,0,9.36-.16,7.81-5.64,13.25-13.47,13.41-1.62,0-3.25,0-4.88,0-9.2,0-14.52-5.34-14.54-14.55,0-2.73,0-5.46,0-8.2H106.73c0,3.41.06,6.65,0,9.88A12.74,12.74,0,0,1,95.66,85.66a54.45,54.45,0,0,1-8.28.27C79.37,85.77,74,80.3,74,72.29c0-3,0-6,0-9.14-7.14,0-14-.17-20.9.08-3.14.12-5.79,3.3-5.83,6.58C47.14,80.3,47.21,90.78,47.21,101.46Zm0,51.57V300.57c0,9.58,5.55,15.17,15.11,15.18q19.39,0,38.79,0h2.75v-113H64.9c-4,0-5.31-1.31-5.32-5.24q0-12.81,0-25.62c0-4,1.29-5.28,5.24-5.28h39V153ZM233.84,301.69H192.65c-4.16,0-5.44-1.27-5.44-5.34q0-12.69,0-25.37c0-4.32,1.14-5.46,5.5-5.46H231c.93,0,1.86-.08,2.71-.13V153h-56v13.52c2.89,0,5.57,0,8.25,0,3.34,0,4.7,1.39,4.7,4.77q0,13.17,0,26.34c0,3.61-1.41,5-5,5-2.65,0-5.31,0-8,0V216h2.82q16.11,0,32.2,0c3.51,0,4.92,1.38,4.93,4.85q0,13.17,0,26.35c0,3.66-1.31,4.93-5,4.93q-16.1,0-32.2,0h-2.73v63.32h56.15Zm-64.36-49.56H126c-3.87,0-5.14-1.28-5.15-5.08q0-12.81,0-25.62c0-4.22,1.25-5.45,5.57-5.45h43.06V202.86H112.28V315.48h57.2Zm13.14-77.46H67.84v19.76H182.62Zm96.78,99H195.32v19.8H279.4ZM128.94,244h80.59V224.27H128.94ZM242,144.6h57.75V109.7H242Zm-194.69-35v35h56.52v-35Zm122.08,35.06v-35H112.22v35Zm8.3-35V144.6h56.06V109.69ZM169.48,153H112.2v13.32h57.28ZM81.91,59c0,4.47,0,8.95,0,13.42,0,3.48,2,5.38,5.5,5.44,2,0,4.07.05,6.1,0,3.07-.08,5.17-1.89,5.2-5q.16-13.9,0-27.81c0-3.06-2.12-4.85-5.22-4.94-1.87-.05-3.74,0-5.61,0-4.14,0-6,1.82-6,5.94C81.89,50.34,81.91,54.65,81.91,59Zm166.45,0c0,4.23,0,8.46,0,12.69s1.79,6.12,6,6.15c1.87,0,3.74,0,5.61,0,3.05-.09,5.16-1.94,5.19-5q.13-13.9,0-27.81c0-3-2.14-4.83-5.25-4.91-1.87-.05-3.75,0-5.62,0-4.13,0-5.92,1.82-5.95,6C248.34,50.37,248.36,54.68,248.36,59Zm-66.43.23c0-4.64,0-9.27,0-13.91,0-3.27-1.9-5.12-5.16-5.21-2.19-.06-4.39-.07-6.58,0-3,.1-4.92,1.94-4.94,4.91q-.09,13.9,0,27.81c0,3.07,2,4.91,5.13,5,2,.05,4.07,0,6.1,0,3.53,0,5.42-1.91,5.45-5.42C182,68,181.93,63.61,181.93,59.22Z"/><path class="cls-1" d="M242,265.59V153.05H300v2.71q0,72.45,0,144.89c0,9.37-5.64,15.08-15,15.1q-20.23,0-40.49,0H242v-14h39.92c4.31,0,5.55-1.22,5.56-5.47q0-12.67,0-25.36c0-4.16-1.2-5.32-5.4-5.32H242Z"/><path class="cls-1" d="M47.21,101.46c0-10.68-.07-21.16,0-31.65,0-3.28,2.69-6.46,5.83-6.58,6.87-.25,13.76-.08,20.9-.08,0,3.16,0,6.15,0,9.14.07,8,5.4,13.48,13.41,13.64a54.45,54.45,0,0,0,8.28-.27,12.74,12.74,0,0,0,11.06-12.58c.07-3.23,0-6.47,0-9.88h50.42c0,2.74,0,5.47,0,8.2,0,9.21,5.34,14.53,14.54,14.55,1.63,0,3.26,0,4.88,0,7.83-.16,13.31-5.6,13.47-13.41.06-3.07,0-6.14,0-9.36h50.4c0,3.14,0,6.2,0,9.27,0,7.23,4.74,12.68,11.89,13.35a44.83,44.83,0,0,0,10-.16A12.58,12.58,0,0,0,273.21,73.2c.07-3.25,0-6.49,0-10,.83-.08,1.52-.21,2.21-.21,5.53,0,11.06,0,16.59,0,5.09,0,8,3,8,8q0,14.16,0,28.3c0,.64-.06,1.29-.09,2.09Z"/><path class="cls-1" d="M47.17,153h56.69v13.54h-39c-3.95,0-5.23,1.28-5.24,5.28q0,12.81,0,25.62c0,3.93,1.35,5.23,5.32,5.24h38.92v113h-2.75q-19.39,0-38.79,0c-9.56,0-15.11-5.6-15.11-15.18V153Z"/><path class="cls-1" d="M233.84,301.69v13.73H177.69V252.1h2.73q16.1,0,32.2,0c3.72,0,5-1.27,5-4.93q0-13.18,0-26.35c0-3.47-1.42-4.84-4.93-4.85q-16.09,0-32.2,0H177.7V202.67c2.67,0,5.33,0,8,0,3.61,0,5-1.41,5-5q0-13.17,0-26.34c0-3.38-1.36-4.74-4.7-4.77-2.68,0-5.36,0-8.25,0V153h56V265.38c-.85.05-1.78.13-2.71.13h-38.3c-4.36,0-5.5,1.14-5.5,5.46q0,12.67,0,25.37c0,4.07,1.28,5.33,5.44,5.34h41.19Z"/><path class="cls-1" d="M169.48,252.13v63.35h-57.2V202.86h57.21V216H126.43c-4.32,0-5.57,1.23-5.57,5.45q0,12.81,0,25.62c0,3.8,1.28,5.07,5.15,5.08h43.47Z"/><path class="cls-1" d="M182.62,174.67v19.76H67.84V174.67Z"/><path class="cls-1" d="M279.4,273.64v19.8H195.32v-19.8Z"/><path class="cls-1" d="M128.94,244V224.27h80.59V244Z"/><path class="cls-1" d="M242,144.6V109.7h57.75v34.9Zm29-4.32c5,0,10.06,0,15.1,0,3,0,4.83-1.5,4.87-3.9s-1.76-4-4.73-4q-15.21,0-30.44,0c-3.06,0-4.73,1.47-4.7,4s1.72,3.91,4.8,3.92C261,140.3,266,140.28,271.05,140.28Zm-6.2-23.86c-3,0-6,0-9,0s-4.73,1.57-4.71,4.06,1.69,4,4.52,4q9.12.09,18.24,0c2.81,0,4.55-1.6,4.61-4s-1.74-4.08-4.67-4.12S267.85,116.42,264.85,116.42Z"/><path class="cls-1" d="M47.33,109.59h56.52v35H47.33Zm27.43,6.83c-5,0-10.07,0-15.1,0-3,0-4.74,1.55-4.73,4s1.74,4,4.77,4q15.1,0,30.2,0c3,0,4.81-1.51,4.88-3.94s-1.8-4.12-4.92-4.14C84.82,116.4,79.79,116.42,74.76,116.42Zm-6.27,15.92c-3.09,0-6.18,0-9.27,0-2.68.05-4.28,1.58-4.28,4s1.6,3.95,4.27,4q9.39.06,18.78,0c2.62,0,4.31-1.65,4.32-4s-1.68-3.91-4.31-4C74.83,132.3,71.66,132.34,68.49,132.34Z"/><path class="cls-1" d="M169.41,144.65H112.22v-35h57.19Zm-29-28.23c-4.87,0-9.74,0-14.62,0-3.32,0-5.26,1.57-5.21,4.12s1.92,4,5.12,4q14.85,0,29.72,0c3.23,0,5-1.46,5-4s-1.8-4.08-5.2-4.09C150.29,116.41,145.34,116.42,140.39,116.42Zm9.35,23.85c2.27,0,4.55.07,6.82,0a3.94,3.94,0,0,0-.06-7.88c-4.47-.08-8.94-.07-13.4,0a3.93,3.93,0,0,0-4.06,4,4,4,0,0,0,4.12,3.92C145.35,140.33,147.55,140.28,149.74,140.27Zm-21.92,0c1.29,0,2.6.09,3.88,0a3.84,3.84,0,0,0,3.52-3.95,3.75,3.75,0,0,0-3.56-3.88,72.94,72.94,0,0,0-7.54,0,3.84,3.84,0,0,0-3.56,3.92,4,4,0,0,0,3.61,3.91C125.38,140.35,126.6,140.26,127.82,140.26Z"/><path class="cls-1" d="M177.71,109.69h56.06V144.6H177.71Zm27.81,14.82c5,0,10.07,0,15.1,0,3.15,0,5.07-1.57,5.08-4s-1.92-4-5-4.06q-14.86,0-29.72,0c-3.37,0-5.22,1.52-5.16,4.14s1.88,3.93,5.12,4C195.77,124.53,200.65,124.51,205.52,124.51Zm.1,15.77c5,0,10.07,0,15.1,0,3.13,0,5-1.58,5-4.06s-1.87-3.87-4.91-3.88h-30.2c-3.06,0-4.78,1.45-4.81,3.93s1.72,4,4.74,4C195.55,140.3,200.59,140.28,205.62,140.28Z"/><path class="cls-1" d="M169.48,153v13.32H112.2V153Z"/><path class="cls-1" d="M81.91,59c0-4.31,0-8.62,0-12.93,0-4.12,1.84-5.91,6-5.94,1.87,0,3.74,0,5.61,0,3.1.09,5.18,1.88,5.22,4.94q.16,13.91,0,27.81c0,3.08-2.13,4.89-5.2,5-2,.05-4.07,0-6.1,0-3.48-.06-5.45-2-5.5-5.44C81.86,67.91,81.91,63.43,81.91,59Z"/><path class="cls-1" d="M248.36,59c0-4.31,0-8.62,0-12.93,0-4.15,1.82-5.94,5.95-6,1.87,0,3.75,0,5.62,0,3.11.08,5.21,1.87,5.25,4.91q.17,13.91,0,27.81c0,3.06-2.14,4.91-5.19,5-1.87.05-3.74,0-5.61,0-4.24,0-6-1.82-6-6.15S248.36,63.22,248.36,59Z"/><path class="cls-1" d="M181.93,59.22c0,4.39,0,8.78,0,13.18,0,3.51-1.92,5.37-5.45,5.42-2,0-4.07.05-6.1,0-3.13-.08-5.11-1.92-5.13-5q-.09-13.9,0-27.81c0-3,1.94-4.81,4.94-4.91,2.19-.08,4.39-.07,6.58,0,3.26.09,5.12,1.94,5.16,5.21C182,50,181.93,54.58,181.93,59.22Z"/><path d="M271.05,140.28c-5,0-10.07,0-15.1,0-3.08,0-4.77-1.42-4.8-3.92s1.64-4,4.7-4q15.22,0,30.44,0c3,0,4.78,1.59,4.73,4s-1.87,3.89-4.87,3.9C281.11,140.3,276.08,140.28,271.05,140.28Z"/><path d="M264.85,116.42c3,0,6,0,9,0s4.73,1.67,4.67,4.12-1.8,3.92-4.61,4q-9.12.07-18.24,0c-2.83,0-4.51-1.6-4.52-4s1.72-4,4.71-4.06S261.85,116.42,264.85,116.42Z"/><path d="M74.76,116.42c5,0,10.06,0,15.1,0,3.12,0,5,1.62,4.92,4.14s-1.85,3.94-4.88,3.94q-15.11,0-30.2,0c-3,0-4.75-1.53-4.77-4s1.72-4,4.73-4C64.69,116.39,69.73,116.42,74.76,116.42Z"/><path d="M68.49,132.34c3.17,0,6.34,0,9.51,0,2.63.05,4.31,1.65,4.31,4s-1.7,3.94-4.32,4q-9.39.06-18.78,0c-2.67,0-4.27-1.59-4.27-4s1.6-3.9,4.28-4C62.31,132.3,65.4,132.34,68.49,132.34Z"/><path d="M140.39,116.42c5,0,9.9,0,14.86,0,3.4,0,5.22,1.46,5.2,4.09s-1.82,4-5,4q-14.86,0-29.72,0c-3.2,0-5.07-1.5-5.12-4s1.89-4.11,5.21-4.12C130.65,116.41,135.52,116.42,140.39,116.42Z"/><path d="M149.74,140.28c-2.19,0-4.39.05-6.58,0a4,4,0,0,1-4.12-3.92,3.93,3.93,0,0,1,4.06-4c4.46-.07,8.93-.08,13.4,0a3.94,3.94,0,0,1,.06,7.88C154.29,140.34,152,140.27,149.74,140.28Z"/><path d="M127.82,140.26c-1.22,0-2.44.09-3.65,0a4,4,0,0,1-3.61-3.91,3.84,3.84,0,0,1,3.56-3.92,72.94,72.94,0,0,1,7.54,0,3.75,3.75,0,0,1,3.56,3.88,3.84,3.84,0,0,1-3.52,3.95C130.42,140.35,129.11,140.26,127.82,140.26Z"/><path d="M205.52,124.51c-4.87,0-9.75,0-14.62,0-3.24,0-5.05-1.44-5.12-4s1.79-4.14,5.16-4.14q14.85,0,29.72,0c3.12,0,5.06,1.6,5,4.06s-1.93,4-5.08,4C215.59,124.53,210.55,124.51,205.52,124.51Z"/><path d="M205.62,140.28c-5,0-10.07,0-15.1,0-3,0-4.76-1.52-4.74-4s1.75-3.92,4.81-3.93h30.2c3,0,4.84,1.47,4.91,3.88s-1.85,4.05-5,4.06C215.69,140.3,210.65,140.28,205.62,140.28Z"/></svg>